<svg width="42" height="44" viewBox="0 0 42 44" fill="none" xmlns="http://www.w3.org/2000/svg">
<path d="M13.5149 37.4104C13.5149 33.771 16.4652 30.8207 20.1045 30.8207H42V38.8543C42 41.6962 39.6962 44 36.8543 44H20.1045C16.4652 44 13.5149 41.0497 13.5149 37.4104Z" fill="#3F3D56"/>
<path d="M7.20001 15.651H35.3332C38.9725 15.651 41.9228 18.6013 41.9228 22.2407C41.9228 25.88 38.9725 28.8303 35.3332 28.8303H20.3792C13.1006 28.8303 7.20001 22.9297 7.20001 15.651Z" fill="#FF6161"/>
<path d="M0 6.58962C0 2.95028 2.95027 0 6.58962 0H42C42 7.27869 36.0994 13.1792 28.8208 13.1792H6.58962C2.95027 13.1792 0 10.229 0 6.58962Z" fill="#FF6584"/>
</svg>
