<svg width="151" height="50" viewBox="0 0 151 50" fill="none" xmlns="http://www.w3.org/2000/svg">
<path d="M59.3291 39C58.7771 39 58.2971 38.796 57.8891 38.388C57.5051 37.98 57.3131 37.5 57.3131 36.948V14.772C57.3131 14.22 57.5051 13.74 57.8891 13.332C58.2971 12.924 58.7771 12.72 59.3291 12.72H61.9931C62.5451 12.72 63.0131 12.924 63.3971 13.332C63.8051 13.74 64.0091 14.22 64.0091 14.772V36.948C64.0091 37.5 63.8051 37.98 63.3971 38.388C63.0131 38.796 62.5451 39 61.9931 39H59.3291ZM71.683 39C71.131 39 70.651 38.796 70.243 38.388C69.859 37.98 69.667 37.5 69.667 36.948V22.332C69.667 21.78 69.859 21.3 70.243 20.892C70.651 20.484 71.131 20.28 71.683 20.28H73.159C73.735 20.28 74.215 20.484 74.599 20.892C75.007 21.276 75.223 21.756 75.247 22.332L75.283 22.62C75.283 22.644 75.295 22.656 75.319 22.656L75.391 22.584C76.951 20.808 78.823 19.92 81.007 19.92C83.191 19.92 84.763 20.544 85.723 21.792C86.683 23.016 87.163 25.116 87.163 28.092V36.948C87.163 37.5 86.959 37.98 86.551 38.388C86.167 38.796 85.699 39 85.147 39H83.563C83.011 39 82.531 38.796 82.123 38.388C81.715 37.98 81.511 37.5 81.511 36.948V28.272C81.511 26.832 81.319 25.848 80.935 25.32C80.551 24.768 79.855 24.492 78.847 24.492C78.007 24.492 77.227 24.84 76.507 25.536C75.811 26.208 75.463 26.94 75.463 27.732V36.948C75.463 37.5 75.259 37.98 74.851 38.388C74.467 38.796 73.999 39 73.447 39H71.683ZM94.1571 39C93.6051 39 93.1251 38.796 92.7171 38.388C92.3091 37.98 92.1051 37.5 92.1051 36.948V14.772C92.1051 14.22 92.3091 13.74 92.7171 13.332C93.1251 12.924 93.6051 12.72 94.1571 12.72H96.2091C96.8331 12.72 97.3971 12.888 97.9011 13.224C98.4051 13.56 98.7771 14.016 99.0171 14.592L104.597 28.164C104.597 28.188 104.609 28.2 104.633 28.2C104.657 28.2 104.669 28.188 104.669 28.164L110.249 14.592C110.489 14.016 110.861 13.56 111.365 13.224C111.869 12.888 112.433 12.72 113.057 12.72H115.253C115.805 12.72 116.285 12.924 116.693 13.332C117.101 13.74 117.305 14.22 117.305 14.772V36.948C117.305 37.5 117.101 37.98 116.693 38.388C116.285 38.796 115.805 39 115.253 39H113.525C112.973 39 112.493 38.796 112.085 38.388C111.701 37.98 111.509 37.5 111.509 36.948V22.944C111.509 22.92 111.497 22.908 111.473 22.908C111.425 22.908 111.401 22.92 111.401 22.944L107.945 31.116C107.705 31.692 107.321 32.148 106.793 32.484C106.289 32.82 105.725 32.988 105.101 32.988H104.165C103.541 32.988 102.965 32.82 102.437 32.484C101.933 32.148 101.561 31.692 101.321 31.116L97.8651 22.944C97.8651 22.92 97.8411 22.908 97.7931 22.908C97.7691 22.908 97.7571 22.92 97.7571 22.944V36.948C97.7571 37.5 97.5531 37.98 97.1451 38.388C96.7611 38.796 96.2931 39 95.7411 39H94.1571ZM128.233 39.36C126.121 39.36 124.585 38.772 123.625 37.596C122.689 36.42 122.221 34.404 122.221 31.548V22.332C122.221 21.78 122.425 21.3 122.833 20.892C123.241 20.484 123.721 20.28 124.273 20.28H125.857C126.409 20.28 126.889 20.484 127.297 20.892C127.705 21.3 127.909 21.78 127.909 22.332V31.152C127.909 32.544 128.089 33.504 128.449 34.032C128.833 34.536 129.481 34.788 130.393 34.788C131.233 34.788 132.001 34.452 132.697 33.78C133.393 33.084 133.741 32.34 133.741 31.548V22.332C133.741 21.78 133.945 21.3 134.353 20.892C134.761 20.484 135.241 20.28 135.793 20.28H137.521C138.073 20.28 138.553 20.484 138.961 20.892C139.369 21.3 139.573 21.78 139.573 22.332V36.948C139.573 37.5 139.369 37.98 138.961 38.388C138.553 38.796 138.073 39 137.521 39H136.045C135.469 39 134.977 38.808 134.569 38.424C134.185 38.016 133.981 37.524 133.957 36.948V36.66C133.957 36.636 133.945 36.624 133.921 36.624L133.849 36.696C132.289 38.472 130.417 39.36 128.233 39.36Z" fill="black"/>
<path d="M13.5149 40.4104C13.5149 36.771 16.4652 33.8207 20.1045 33.8207H42V41.8543C42 44.6962 39.6962 47 36.8543 47H20.1045C16.4652 47 13.5149 44.0497 13.5149 40.4104V40.4104Z" fill="#3F3D56"/>
<path d="M7.20001 18.651H35.3332C38.9725 18.651 41.9228 21.6013 41.9228 25.2407V25.2407C41.9228 28.88 38.9725 31.8303 35.3332 31.8303H20.3792C13.1006 31.8303 7.20001 25.9297 7.20001 18.651V18.651Z" fill="#FF6161"/>
<path d="M0 9.58962C0 5.95028 2.95027 3 6.58962 3H42V3C42 10.2787 36.0994 16.1792 28.8208 16.1792H6.58962C2.95027 16.1792 0 13.229 0 9.58962V9.58962Z" fill="#FF6584"/></svg>